<!-- Generator: Adobe Illustrator 23.0.6, SVG Export Plug-In  -->
<svg version="1.1" xmlns="http://www.w3.org/2000/svg" xmlns:xlink="http://www.w3.org/1999/xlink" x="0px" y="0px" width="200px"
	 height="200px" viewBox="0 0 200 200" style="enable-background:new 0 0 200 200;" xml:space="preserve">
<style type="text/css">
	.st0{fill:#FF615A;}
	.st1{fill:#482890;}
	.st2{fill:none;}
</style>
<defs>
</defs>
<g>
	<g>
		<path class="st0" d="M172,95.4h-10c0-12.1-9.9-22-22-22s-22,9.9-22,22h-10c0-11.7,6.3-22,15.7-27.5c-2-14.4-14.3-25.5-29.2-25.5
			c-15.8,0-28.7,12.5-29.5,28.1c7.7,4.3,13,12.5,13,21.9H68c0-8.3-6.7-15-15-15s-15,6.7-15,15H28c0-13.8,11.2-25,25-25
			c0.8,0,1.5,0,2.3,0.1c2.2-19.7,19-35.1,39.2-35.1c19.1,0,35.1,13.7,38.7,31.7c2.2-0.5,4.4-0.7,6.8-0.7
			C157.6,63.4,172,77.7,172,95.4z"/>
		<path class="st1" d="M171.5,110.4v10h-143v-10H171.5z M28.8,144h94v-10h-94V144z M28.8,167.6h47v-10h-47V167.6z"/>
	</g>
	<rect class="st2" width="200" height="200"/>
</g>
</svg>
