<svg xmlns="http://www.w3.org/2000/svg" viewBox="0 0 200 200"><defs><style>.cls-1{fill:none;}.cls-2{fill:#482890;}.cls-3{fill:#ff615a;}</style></defs><title>concept</title><g id="Layer_2" data-name="Layer 2"><g id="Layer_1-2" data-name="Layer 1"><rect class="cls-1" width="200" height="200"/><path class="cls-2" d="M59,163.65A111.3,111.3,0,0,1,146.11,76.4l-2-9.81a121.36,121.36,0,0,0-95.34,97.06Z"/><path class="cls-3" d="M54.56,93.45A29,29,0,0,1,25.9,68.31h0A28.92,28.92,0,1,1,58.35,93.2,28.6,28.6,0,0,1,54.56,93.45ZM35.82,67A18.92,18.92,0,1,0,52.11,45.77,18.94,18.94,0,0,0,35.82,67Z"/><polygon class="cls-3" points="151.91 119.84 144.84 112.77 125.86 131.74 106.89 112.77 99.82 119.84 118.79 138.81 99.82 157.78 106.89 164.85 125.86 145.88 144.84 164.85 151.91 157.78 132.93 138.81 151.91 119.84"/><polygon class="cls-3" points="156.84 94.08 148.94 87.94 163.86 68.77 144.72 53.77 150.89 45.9 177.87 67.05 156.84 94.08"/></g></g></svg>