<svg xmlns="http://www.w3.org/2000/svg" viewBox="0 0 200 200"><defs><style>.cls-1{fill:none;}.cls-2{fill:#482890;}.cls-3{fill:#ff615a;}</style></defs><title>config</title><g id="Layer_2" data-name="Layer 2"><g id="Layer_1-2" data-name="Layer 1"><rect class="cls-1" width="200" height="200"/><path class="cls-2" d="M83.49,172.17A21.51,21.51,0,1,1,105,150.66,21.53,21.53,0,0,1,83.49,172.17Zm0-33A11.51,11.51,0,1,0,95,150.66,11.51,11.51,0,0,0,83.49,139.16Z"/><rect class="cls-2" x="148.27" y="93.73" width="20.98" height="10"/><rect class="cls-2" x="30.75" y="93.73" width="59.46" height="10"/><path class="cls-2" d="M74.18,70.84a21.51,21.51,0,1,1,21.51-21.5A21.52,21.52,0,0,1,74.18,70.84Zm0-33A11.51,11.51,0,1,0,85.69,49.34,11.52,11.52,0,0,0,74.18,37.83Z"/><path class="cls-3" d="M119.22,119.46A21.51,21.51,0,1,1,140.72,98,21.54,21.54,0,0,1,119.22,119.46Zm0-33A11.51,11.51,0,1,0,130.72,98,11.52,11.52,0,0,0,119.22,86.45Z"/><rect class="cls-3" x="112.16" y="146.07" width="57.08" height="10"/><rect class="cls-3" x="30.75" y="146.07" width="22.96" height="10"/><rect class="cls-3" x="102.85" y="44.74" width="66.39" height="10"/><rect class="cls-3" x="30.75" y="44.74" width="15.34" height="10"/></g></g></svg>