<svg xmlns="http://www.w3.org/2000/svg" viewBox="0 0 200 200"><defs><style>.cls-1{fill:none;}.cls-2{fill:#482890;}.cls-3{fill:#ff615a;}</style></defs><title>link</title><g id="Layer_2" data-name="Layer 2"><g id="Layer_1-2" data-name="Layer 1"><rect class="cls-1" width="200" height="200"/><path class="cls-2" d="M69.93,53.72h-.11a45.42,45.42,0,0,0-.09,90.84h.1a44.93,44.93,0,0,0,17.48-3.49l-6.14-8.36a35.19,35.19,0,0,1-11.34,1.85h-.08a35.42,35.42,0,0,1,.07-70.84h.08A35.47,35.47,0,0,1,104.63,92.6h10.14A45.47,45.47,0,0,0,69.93,53.72Z"/><path class="cls-3" d="M162.36,68.44a45.09,45.09,0,0,0-32.09-13.37h-.1A44.81,44.81,0,0,0,111.76,59l5.68,8.47a35,35,0,0,1,12.73-2.37h.08a35.41,35.41,0,1,1-34.84,42.25H85.26a45.44,45.44,0,0,0,44.82,38.59h.1a45.42,45.42,0,0,0,32.18-77.47Z"/></g></g></svg>