<svg xmlns="http://www.w3.org/2000/svg" viewBox="0 0 200 200"><defs><style>.cls-1{fill:none;}.cls-2{fill:#482890;}.cls-3{fill:#ff615a;}</style></defs><title>mobile</title><g id="Layer_2" data-name="Layer 2"><g id="Layer_1-2" data-name="Layer 1"><rect class="cls-1" width="200" height="200"/><path class="cls-2" d="M150.76,150.9h-10v-118A12,12,0,0,0,128.82,21H71.18A12,12,0,0,0,59.24,32.91v118h-10v-118A22,22,0,0,1,71.18,11h57.64a22,22,0,0,1,21.94,21.94Z"/><rect class="cls-3" x="80.33" y="31.44" width="40.96" height="10"/><path class="cls-3" d="M128.82,189H71.18a22,22,0,0,1-21.94-21.94v-4.43h10v4.43A12,12,0,0,0,71.18,179h57.64a12,12,0,0,0,11.94-11.94v-4.17h10v4.17A22,22,0,0,1,128.82,189Z"/></g></g></svg>