<svg xmlns="http://www.w3.org/2000/svg" viewBox="0 0 200 200"><defs><style>.cls-1{fill:none;}.cls-2{fill:#482890;}.cls-3{fill:#ff615a;}</style></defs><title>science</title><g id="Layer_2" data-name="Layer 2"><g id="Layer_1-2" data-name="Layer 1"><rect class="cls-1" width="200" height="200"/><polygon class="cls-2" points="75.96 164.01 75.96 149.73 65.96 149.73 65.96 164.01 39.76 164.01 39.76 174.01 102.15 174.01 102.15 164.01 75.96 164.01"/><rect class="cls-2" x="85.6" y="76.81" width="35.05" height="10" transform="translate(-27 101.71) rotate(-47.12)"/><rect class="cls-2" x="149.28" y="77.82" width="10" height="55.99" transform="translate(-18.97 35.23) rotate(-12.28)"/><path class="cls-3" d="M139.93,71A22.94,22.94,0,1,1,162.87,48,23,23,0,0,1,139.93,71Zm0-35.88A12.94,12.94,0,1,0,152.87,48,13,13,0,0,0,139.93,35.07Z"/><path class="cls-3" d="M71,141.85A22.94,22.94,0,1,1,93.9,118.91,23,23,0,0,1,71,141.85ZM71,106A12.94,12.94,0,1,0,83.9,118.91,12.95,12.95,0,0,0,71,106Z"/></g></g></svg>