<svg xmlns="http://www.w3.org/2000/svg" viewBox="0 0 200 200"><defs><style>.cls-1{fill:none;}.cls-2{fill:#482890;}.cls-3{fill:#ff615a;}</style></defs><title>team</title><g id="Layer_2" data-name="Layer 2"><g id="Layer_1-2" data-name="Layer 1"><rect class="cls-1" width="200" height="200"/><path class="cls-2" d="M44.4,117.81A19.8,19.8,0,1,1,64.2,98,19.82,19.82,0,0,1,44.4,117.81Zm0-29.6A9.8,9.8,0,1,0,54.2,98,9.82,9.82,0,0,0,44.4,88.21Z"/><path class="cls-2" d="M129.39,116.79h-10a19.67,19.67,0,1,0-39.33,0h-10a29.67,29.67,0,1,1,59.33,0Z"/><path class="cls-2" d="M156.37,117.81A19.8,19.8,0,1,1,176.18,98,19.83,19.83,0,0,1,156.37,117.81Zm0-29.6a9.8,9.8,0,1,0,9.81,9.8A9.82,9.82,0,0,0,156.37,88.21Z"/><path class="cls-3" d="M73.68,154.18h-10a19.67,19.67,0,0,0-39.33,0h-10a29.67,29.67,0,0,1,59.33,0Z"/><path class="cls-3" d="M100.11,80.42a19.8,19.8,0,1,1,19.8-19.8A19.83,19.83,0,0,1,100.11,80.42Zm0-29.6a9.8,9.8,0,1,0,9.8,9.8A9.81,9.81,0,0,0,100.11,50.82Z"/><path class="cls-3" d="M185.65,154.18h-10a19.67,19.67,0,0,0-39.33,0h-10a29.67,29.67,0,0,1,59.33,0Z"/></g></g></svg>