<svg xmlns="http://www.w3.org/2000/svg" viewBox="0 0 200 200"><defs><style>.cls-1{fill:none;}.cls-2{fill:#482890;}.cls-3{fill:#ff615a;}</style></defs><title>ux</title><g id="Layer_2" data-name="Layer 2"><g id="Layer_1-2" data-name="Layer 1"><rect class="cls-1" width="200" height="200"/><rect class="cls-2" x="95.12" y="75.93" width="10" height="48.4" transform="translate(-41.48 100.13) rotate(-45)"/><path class="cls-2" d="M142.39,84.05a26.53,26.53,0,1,1,26.53-26.53A26.56,26.56,0,0,1,142.39,84.05Zm0-43.06a16.53,16.53,0,1,0,16.53,16.53A16.54,16.54,0,0,0,142.39,41Z"/><path class="cls-2" d="M57.83,169a26.53,26.53,0,1,1,26.53-26.53A26.56,26.56,0,0,1,57.83,169Zm0-43.06a16.53,16.53,0,1,0,16.53,16.53A16.55,16.55,0,0,0,57.83,126Z"/><path class="cls-3" d="M57.61,84.05A26.53,26.53,0,1,1,84.14,57.52,26.56,26.56,0,0,1,57.61,84.05Zm0-43.06A16.53,16.53,0,1,0,74.14,57.52,16.55,16.55,0,0,0,57.61,41Z"/><path class="cls-3" d="M142.39,169a26.53,26.53,0,1,1,26.53-26.53A26.56,26.56,0,0,1,142.39,169Zm0-43.06a16.53,16.53,0,1,0,16.53,16.53A16.55,16.55,0,0,0,142.39,126Z"/><rect class="cls-3" x="106.76" y="81.4" width="14.2" height="10" transform="translate(-27.74 105.82) rotate(-45)"/><rect class="cls-3" x="79.27" y="108.82" width="14.33" height="10" transform="translate(-55.17 94.44) rotate(-45)"/></g></g></svg>