<svg xmlns="http://www.w3.org/2000/svg" viewBox="0 0 200 200"><defs><style>.cls-1{fill:none;}.cls-2{fill:#482890;}.cls-3{fill:#ff615a;}</style></defs><title>wink</title><g id="Layer_2" data-name="Layer 2"><g id="Layer_1-2" data-name="Layer 1"><rect class="cls-1" width="200" height="200"/><path class="cls-2" d="M71.58,88A18.22,18.22,0,1,1,90.13,69.78,18.4,18.4,0,0,1,71.58,88Zm0-26.44a8.23,8.23,0,1,0,8.55,8.22A8.4,8.4,0,0,0,71.58,61.56Z"/><rect class="cls-2" x="108.66" y="62.57" width="38.74" height="10"/><path class="cls-3" d="M100,148.44c-.57,0-1.14,0-1.71,0a57.81,57.81,0,0,1-7.23-.66l-.21,0-.19,0L89,147.42a58,58,0,0,1-43-36.17l9.34-3.57a47.89,47.89,0,0,0,36.54,30.08h1.66l.29.29a47.88,47.88,0,0,0,50.92-30.63l9.37,3.5A57.87,57.87,0,0,1,100,148.44Z"/></g></g></svg>